<?xml version="1.0" standalone="no"?>
<!DOCTYPE svg PUBLIC "-//W3C//DTD SVG 1.1//EN" "http://www.w3.org/Graphics/SVG/1.1/DTD/svg11.dtd">
<svg xmlns="http://www.w3.org/2000/svg" xmlns:xlink="http://www.w3.org/1999/xlink" id="uuid-fccb5b71-19e9-4622-8c8d-c11cb0008034" data-name="Laag 2" viewBox="0 0 2515.68 2515.07" width="2515.679931640625" height="2515.070068359375">
  <defs>
    <style>
      .uuid-483f1687-3c7a-4ecb-977b-cf9543938b33 {
        fill: none;
      }

      .uuid-8e10ac71-a16b-4ea7-b677-a91ed51a5561 {
        fill: url(#uuid-8e23753f-fe67-4085-8059-fb15481c7b6c);
      }

      .uuid-ddf0fb6a-1444-46ff-8447-668678430aa0 {
        clip-path: url(#uuid-142486ab-1c90-462a-98d3-a11ee161b034);
      }

      .uuid-64fdfe02-b768-4e0e-8826-eb0cc1578ea0 {
        fill: #112438;
      }

      .uuid-c0c5e32f-da10-4895-a94f-6b58d2d164ee {
        fill: #ec6534;
      }

      .uuid-7b8c097f-2261-41a2-9e2b-2002d8130ceb {
        clip-path: url(#uuid-808e044f-a763-4ec5-8def-468163f29940);
      }

      .uuid-d0954317-1553-423c-a409-d52f588136ae {
        clip-path: url(#uuid-47ad34dc-f099-4d31-9780-e39d4fc289eb);
      }

      .uuid-5531e0e3-6ce3-46b1-a6f1-b60bcda9ff78 {
        fill: #070a13;
      }

      .uuid-23c41498-019f-4cf1-88fd-cf4c6766588d {
        fill: #fff;
      }

      .uuid-8203cb1c-bb09-46c3-b0a8-8fb90c3ae334 {
        clip-path: url(#uuid-af285797-81b4-41bd-b901-b9c77a00c8c1);
      }

      .uuid-e361c3de-ab83-4808-8d32-6147772e1b87 {
        clip-path: url(#uuid-b96b7895-3a49-4caa-9250-41ad1236de04);
      }

      .uuid-f1c60638-948a-43d3-b3e2-cc41acc56d28 {
        clip-path: url(#uuid-f051f776-6756-4360-9521-357a88a0069c);
      }

      .uuid-1cf5bfdd-68b1-4c5e-bea5-418a20f933bd {
        clip-path: url(#uuid-ac494ee9-a346-44ea-a3d6-80e9935aa1a2);
      }
    </style>
    <clipPath id="uuid-b96b7895-3a49-4caa-9250-41ad1236de04">
      <rect class="uuid-483f1687-3c7a-4ecb-977b-cf9543938b33" x="0" y="0" width="2515.68" height="2515.07"/>
    </clipPath>
    <clipPath id="uuid-ac494ee9-a346-44ea-a3d6-80e9935aa1a2">
      <rect class="uuid-483f1687-3c7a-4ecb-977b-cf9543938b33" x=".35" y="0" width="2515.33" height="2514.72"/>
    </clipPath>
    <clipPath id="uuid-142486ab-1c90-462a-98d3-a11ee161b034">
      <polyline class="uuid-483f1687-3c7a-4ecb-977b-cf9543938b33" points="222.64 156.51 222.64 0 0 0 0 156.51"/>
    </clipPath>
    <clipPath id="uuid-af285797-81b4-41bd-b901-b9c77a00c8c1">
      <polyline class="uuid-483f1687-3c7a-4ecb-977b-cf9543938b33" points="222.64 156.51 222.64 0 0 0 0 156.51"/>
    </clipPath>
    <clipPath id="uuid-808e044f-a763-4ec5-8def-468163f29940">
      <polyline class="uuid-483f1687-3c7a-4ecb-977b-cf9543938b33" points="222.64 156.51 222.64 0 0 0 0 156.51"/>
    </clipPath>
    <clipPath id="uuid-47ad34dc-f099-4d31-9780-e39d4fc289eb">
      <polyline class="uuid-483f1687-3c7a-4ecb-977b-cf9543938b33" points="222.64 156.51 222.64 0 0 0 0 156.51"/>
    </clipPath>
    <clipPath id="uuid-f051f776-6756-4360-9521-357a88a0069c">
      <polyline class="uuid-483f1687-3c7a-4ecb-977b-cf9543938b33" points="222.64 156.51 222.64 0 0 0 0 156.51"/>
    </clipPath>
    <pattern id="uuid-8e23753f-fe67-4085-8059-fb15481c7b6c" data-name="Unnamed Pattern" x="0" y="0" width="222.64" height="156.51" patternTransform="translate(609.31 23852.79) rotate(-11.92) scale(5.78 -5.78) skewX(-.04)" patternUnits="userSpaceOnUse" viewBox="0 0 222.64 156.51">
      <g>
        <rect class="uuid-483f1687-3c7a-4ecb-977b-cf9543938b33" width="222.64" height="156.51"/>
        <g class="uuid-ddf0fb6a-1444-46ff-8447-668678430aa0">
          <polyline class="uuid-5531e0e3-6ce3-46b1-a6f1-b60bcda9ff78" points="43.4 162.71 -.87 146.69 -1.3 162.59 42.98 178.61 43.4 162.71"/>
          <polyline class="uuid-5531e0e3-6ce3-46b1-a6f1-b60bcda9ff78" points="87.93 168.97 43.66 152.95 43.23 168.85 87.5 184.88 87.93 168.97"/>
          <polyline class="uuid-5531e0e3-6ce3-46b1-a6f1-b60bcda9ff78" points="266.04 162.71 221.77 146.69 221.35 162.59 265.62 178.61 266.04 162.71"/>
          <polyline class="uuid-5531e0e3-6ce3-46b1-a6f1-b60bcda9ff78" points="43.4 131.41 -.87 115.39 -1.3 131.29 42.98 147.31 43.4 131.41"/>
          <polyline class="uuid-5531e0e3-6ce3-46b1-a6f1-b60bcda9ff78" points="87.93 137.67 43.66 121.65 43.23 137.55 87.5 153.57 87.93 137.67"/>
          <polyline class="uuid-5531e0e3-6ce3-46b1-a6f1-b60bcda9ff78" points="132.46 143.93 88.19 127.91 87.76 143.81 132.03 159.83 132.46 143.93"/>
          <polyline class="uuid-5531e0e3-6ce3-46b1-a6f1-b60bcda9ff78" points="176.99 150.19 132.72 134.17 132.29 150.07 176.56 166.09 176.99 150.19"/>
          <polyline class="uuid-5531e0e3-6ce3-46b1-a6f1-b60bcda9ff78" points="221.51 156.45 177.24 140.43 176.82 156.33 221.09 172.35 221.51 156.45"/>
          <polyline class="uuid-5531e0e3-6ce3-46b1-a6f1-b60bcda9ff78" points="266.04 131.41 221.77 115.39 221.35 131.29 265.62 147.31 266.04 131.41"/>
          <polyline class="uuid-5531e0e3-6ce3-46b1-a6f1-b60bcda9ff78" points="43.4 100.11 -.87 84.09 -1.3 99.99 42.98 116.01 43.4 100.11"/>
        </g>
        <polyline class="uuid-5531e0e3-6ce3-46b1-a6f1-b60bcda9ff78" points="87.93 106.37 43.66 90.35 43.23 106.25 87.5 122.27 87.93 106.37"/>
        <polyline class="uuid-5531e0e3-6ce3-46b1-a6f1-b60bcda9ff78" points="132.46 112.63 88.19 96.61 87.76 112.51 132.03 128.53 132.46 112.63"/>
        <g class="uuid-8203cb1c-bb09-46c3-b0a8-8fb90c3ae334">
          <polyline class="uuid-5531e0e3-6ce3-46b1-a6f1-b60bcda9ff78" points="176.99 118.89 132.72 102.87 132.29 118.77 176.56 134.79 176.99 118.89"/>
          <polyline class="uuid-5531e0e3-6ce3-46b1-a6f1-b60bcda9ff78" points="221.51 125.15 177.24 109.13 176.82 125.03 221.09 141.05 221.51 125.15"/>
          <polyline class="uuid-5531e0e3-6ce3-46b1-a6f1-b60bcda9ff78" points="266.04 100.11 221.77 84.09 221.35 99.99 265.62 116.01 266.04 100.11"/>
          <polyline class="uuid-5531e0e3-6ce3-46b1-a6f1-b60bcda9ff78" points="43.4 68.81 -.87 52.78 -1.3 68.69 42.98 84.71 43.4 68.81"/>
        </g>
        <polyline class="uuid-5531e0e3-6ce3-46b1-a6f1-b60bcda9ff78" points="87.93 75.07 43.66 59.05 43.23 74.95 87.5 90.97 87.93 75.07"/>
        <polyline class="uuid-5531e0e3-6ce3-46b1-a6f1-b60bcda9ff78" points="132.46 81.33 88.19 65.31 87.76 81.21 132.03 97.23 132.46 81.33"/>
        <polyline class="uuid-5531e0e3-6ce3-46b1-a6f1-b60bcda9ff78" points="176.99 87.59 132.72 71.57 132.29 87.47 176.56 103.49 176.99 87.59"/>
        <polyline class="uuid-5531e0e3-6ce3-46b1-a6f1-b60bcda9ff78" points="221.51 93.85 177.24 77.83 176.82 93.73 221.09 109.75 221.51 93.85"/>
        <g class="uuid-7b8c097f-2261-41a2-9e2b-2002d8130ceb">
          <polyline class="uuid-5531e0e3-6ce3-46b1-a6f1-b60bcda9ff78" points="266.04 68.81 221.77 52.78 221.35 68.69 265.62 84.71 266.04 68.81"/>
          <polyline class="uuid-5531e0e3-6ce3-46b1-a6f1-b60bcda9ff78" points="43.4 37.51 -.87 21.48 -1.3 37.39 42.98 53.41 43.4 37.51"/>
          <polyline class="uuid-5531e0e3-6ce3-46b1-a6f1-b60bcda9ff78" points="87.93 43.76 43.66 27.74 43.23 43.65 87.5 59.67 87.93 43.76"/>
        </g>
        <polyline class="uuid-5531e0e3-6ce3-46b1-a6f1-b60bcda9ff78" points="132.46 50.03 88.19 34 87.76 49.91 132.03 65.93 132.46 50.03"/>
        <polyline class="uuid-5531e0e3-6ce3-46b1-a6f1-b60bcda9ff78" points="176.99 56.28 132.72 40.26 132.29 56.17 176.56 72.19 176.99 56.28"/>
        <polyline class="uuid-5531e0e3-6ce3-46b1-a6f1-b60bcda9ff78" points="221.51 62.55 177.24 46.53 176.82 62.43 221.09 78.45 221.51 62.55"/>
        <g class="uuid-d0954317-1553-423c-a409-d52f588136ae">
          <polyline class="uuid-5531e0e3-6ce3-46b1-a6f1-b60bcda9ff78" points="266.04 37.51 221.77 21.48 221.35 37.39 265.62 53.41 266.04 37.51"/>
          <polyline class="uuid-5531e0e3-6ce3-46b1-a6f1-b60bcda9ff78" points="43.4 6.2 -.87 -9.82 -1.3 6.09 42.98 22.11 43.4 6.2"/>
          <polyline class="uuid-5531e0e3-6ce3-46b1-a6f1-b60bcda9ff78" points="87.93 12.46 43.66 -3.56 43.23 12.35 87.5 28.37 87.93 12.46"/>
          <polyline class="uuid-5531e0e3-6ce3-46b1-a6f1-b60bcda9ff78" points="132.46 18.72 88.19 2.7 87.76 18.61 132.03 34.63 132.46 18.72"/>
          <polyline class="uuid-5531e0e3-6ce3-46b1-a6f1-b60bcda9ff78" points="176.99 24.98 132.72 8.96 132.29 24.87 176.56 40.89 176.99 24.98"/>
        </g>
        <polyline class="uuid-5531e0e3-6ce3-46b1-a6f1-b60bcda9ff78" points="221.51 31.24 177.24 15.22 176.82 31.13 221.09 47.15 221.51 31.24"/>
        <g class="uuid-f1c60638-948a-43d3-b3e2-cc41acc56d28">
          <polyline class="uuid-5531e0e3-6ce3-46b1-a6f1-b60bcda9ff78" points="266.04 6.2 221.77 -9.82 221.35 6.09 265.62 22.11 266.04 6.2"/>
          <polyline class="uuid-5531e0e3-6ce3-46b1-a6f1-b60bcda9ff78" points="132.46 -12.58 88.19 -28.6 87.76 -12.69 132.03 3.33 132.46 -12.58"/>
          <polyline class="uuid-5531e0e3-6ce3-46b1-a6f1-b60bcda9ff78" points="176.99 -6.32 132.72 -22.34 132.29 -6.43 176.56 9.59 176.99 -6.32"/>
          <polyline class="uuid-5531e0e3-6ce3-46b1-a6f1-b60bcda9ff78" points="221.51 -.06 177.24 -16.08 176.82 -.17 221.09 15.85 221.51 -.06"/>
        </g>
      </g>
    </pattern>
  </defs>
  <g id="uuid-719b89d8-674d-43f2-8db2-a8adbe865ea9" data-name="Laag 1">
    <g class="uuid-e361c3de-ab83-4808-8d32-6147772e1b87">
      <g class="uuid-1cf5bfdd-68b1-4c5e-bea5-418a20f933bd">
        <path class="uuid-5531e0e3-6ce3-46b1-a6f1-b60bcda9ff78" d="M2424.91,1726.71c-216.67,540.56-788.91,874.24-1385.16,769.1C443.44,2390.67,19.84,1881.4,1.12,1299.34l2423.79,427.38"/>
        <path class="uuid-64fdfe02-b768-4e0e-8826-eb0cc1578ea0" d="M2496.37,1475.88c-15.45,87.59-39.6,171.41-71.46,250.84L1.11,1299.34c-2.78-85.53,3.2-172.57,18.64-260.15C140.33,355.35,792.54-101.33,1476.43,19.26c683.84,120.58,1140.51,772.78,1019.94,1456.62"/>
        <path class="uuid-8e10ac71-a16b-4ea7-b677-a91ed51a5561" d="M2424.62,1726.66L.77,1299.27C-22.51,630.48,485.26,56.27,1158.88,3.97c692.27-53.81,1297.59,463.89,1351.97,1156.27,15.71,199.85-16.24,392.35-86.23,566.43"/>
      </g>
      <path class="uuid-23c41498-019f-4cf1-88fd-cf4c6766588d" d="M950.66,914.1l-73.76,418.29c-.42,2.35-2.66,3.93-5.02,3.51l-76.83-13.54c-2.36-.42-3.93-2.66-3.52-5.02l50.95-288.94-154.42,201.75-48.25-8.51-75.48-242.28-50.95,288.94c-.42,2.35-2.66,3.93-5.02,3.51l-76.83-13.55c-2.36-.42-3.93-2.66-3.51-5.02l73.75-418.29c.42-2.36,2.66-3.93,5.02-3.51l98.23,17.32c2.4.43,4.36,2.15,5.08,4.48l76.62,247.12,157.13-205.91c1.48-1.93,3.9-2.88,6.3-2.46l96.99,17.1c2.36.42,3.93,2.66,3.52,5.02M1907.56,1161.34l186.72,32.92c2.36.42,4.6-1.16,5.02-3.51l12.68-71.88c.42-2.35-1.16-4.6-3.52-5.02l-186.72-32.92c-58.25-10.27-113.79,28.62-124.07,86.87h0s-38.07,215.89-38.07,215.89c-10.27,58.24,28.63,113.79,86.87,124.06l186.72,32.93c2.36.42,4.6-1.16,5.02-3.52l12.68-71.88c.42-2.36-1.16-4.61-3.52-5.02l-186.72-32.92c-11.1-1.96-18.51-12.54-16.56-23.65l13.04-73.92,186.72,32.92c2.36.42,4.61-1.15,5.02-3.51l12.67-71.88c.42-2.36-1.16-4.61-3.51-5.02l-186.73-32.92,12.6-71.45c1.96-11.1,12.55-18.51,23.65-16.56ZM651.68,674.26l5.07-28.75c.16-.88-.43-1.72-1.32-1.87l-114.72-20.23c-.88-.16-1.72.43-1.87,1.32l-5.07,28.74c-.16.88.43,1.72,1.32,1.88l40.4,7.12-20.7,117.41c-.16.88.43,1.72,1.32,1.88l30.71,5.42c.88.16,1.72-.43,1.88-1.32l20.7-117.41,40.4,7.12c.88.16,1.72-.43,1.88-1.32ZM799.37,669.02l-30.71-5.42c-.88-.16-1.72.43-1.88,1.32l-10.13,57.47-60.6-10.69,10.13-57.46c.16-.88-.43-1.72-1.32-1.88l-30.71-5.42c-.88-.16-1.72.43-1.88,1.32l-26.05,147.75c-.16.88.44,1.72,1.32,1.87l30.72,5.42c.88.16,1.72-.43,1.87-1.32l10.29-58.34,60.6,10.68-10.29,58.35c-.16.88.44,1.72,1.32,1.87l30.71,5.42c.88.16,1.72-.43,1.88-1.32l26.05-147.75c.16-.88-.43-1.72-1.32-1.88ZM870.79,839.96c45.29,7.98,85.79-19.61,93.62-64.02,7.83-44.41-20.79-84.19-66.08-92.18-45.51-8.02-85.79,19.61-93.62,64.02-7.83,44.41,20.57,84.16,66.08,92.18ZM876.54,807.36c-25.6-4.51-41.63-27.41-37.04-53.44,4.59-26.04,27.49-42.07,53.09-37.56,25.6,4.52,41.63,27.42,37.04,53.45-4.59,26.03-27.49,42.07-53.09,37.55ZM1156.15,731.93l-37.84-6.67c-1.18-.21-2.37.25-3.11,1.19l-51.99,66.01-26.05-79.77c-.37-1.14-1.34-1.98-2.52-2.19l-38.49-6.78c-.88-.16-1.72.43-1.88,1.32l-26.05,147.75c-.16.88.43,1.72,1.32,1.88l30.71,5.42c.88.16,1.72-.43,1.88-1.32l16.81-95.31,25.45,78.25,19.25,3.39,50.68-64.82-16.81,95.32c-.16.88.44,1.72,1.32,1.87l30.71,5.42c.88.16,1.72-.43,1.87-1.32l26.05-147.75c.16-.88-.43-1.72-1.32-1.88ZM1258.93,903.5c.23,1.36,1.29,2.42,2.64,2.66l32.63,5.75c1.11.2,2.08-.78,1.87-1.9l-29.42-156.46c-.25-1.33-1.29-2.36-2.62-2.6l-35.61-6.28c-1.33-.23-2.67.38-3.36,1.55l-80.94,137c-.58.98,0,2.23,1.11,2.42l31.75,5.6c1.36.24,2.71-.4,3.39-1.59l12.94-22.82,61.25,10.8,4.36,25.87ZM1209.77,837.47l29.53-52.31,9.85,59.26-39.38-6.94ZM1299.07,892.08c13.38,16.48,36.15,29.76,59.03,33.8,33.68,5.94,63.04-8.28,67.93-36.07,6.21-35.22-34.16-53.17-47-58.36-13.28-5.27-26.25-12.3-24.51-22.14,1.38-7.87,12.01-11.86,25.58-9.47,13.49,2.38,26.63,10.17,34.16,19.38.63.78,1.78.82,2.45.06l18.13-20.57c.52-.59.57-1.47.09-2.09-9.46-12.24-26.76-22.96-49.29-26.94-34.79-6.13-61.36,7.68-66.14,34.81-4.71,26.69,15.32,44.88,44.23,57.42,15.28,6.75,29.1,12.8,27.25,23.3-1.58,8.97-14.22,12.83-27.78,10.44-15.41-2.72-31.55-13.12-41.87-25.99-.61-.76-1.71-.82-2.39-.13l-19.76,20.37c-.58.59-.64,1.53-.12,2.17ZM1716.16,1484.77l-81.74-14.41c-2.21-.39-4.07-1.9-4.9-3.98l-60.44-150.61-83.46-15.11-.07.38-23.71,134.49c-.42,2.35-2.66,3.93-5.02,3.51l-76.83-13.54c-2.35-.42-3.93-2.66-3.51-5.02l73.75-418.29c.42-2.35,2.66-3.93,5.02-3.51l185.82,32.76c79.18,13.96,134.7,88.42,121.79,167.78-9.57,58.86-52.96,103.53-106.88,117.81l64.96,161.86c1.26,3.15-1.43,6.47-4.78,5.88ZM1682.11,1186.99c6.18-35.03-17.22-68.44-52.24-74.61l-107.7-18.99-.13.74-22.23,126.09v.03s107.7,18.99,107.7,18.99c35.03,6.18,68.44-17.21,74.61-52.24ZM1023.09,1173.64c-.44-10.11.16-20.4,1.98-30.77,13.49-76.48,86.42-127.55,162.91-114.07,76.48,13.49,127.56,86.42,114.06,162.91-1.83,10.37-4.78,20.26-8.66,29.59l81.83,14.43c3.1-9.63,5.59-19.57,7.4-29.81,21.33-120.98-59.45-236.34-180.43-257.68-120.98-21.33-236.35,59.45-257.68,180.43-1.81,10.24-2.86,20.44-3.24,30.55l81.82,14.43ZM948.08,1222.65c21.09,81.87,88.17,148.05,176.86,163.68,88.69,15.64,174.35-23.6,222.18-93.33l-399.03-70.36Z"/>
      <path class="uuid-c0c5e32f-da10-4895-a94f-6b58d2d164ee" d="M488.2,1790.22l53.55-50.68c28.17,27.56,52.58,39.97,75.88,44.08,25.79,4.55,39.19-3.32,41.6-16.97,1.97-11.17-4.55-20.41-35.27-33.51l-35.08-15.14c-49.82-21.57-71.02-52.18-63.65-93.94,9.55-54.17,59.11-84.66,129.42-72.26,41.6,7.33,78.38,27.46,104.13,61.42l-56.88,42.84c-21.46-24.25-42.08-33.86-61.63-37.3-24.55-4.33-37.38,2.79-39.5,14.78-1.68,9.51,3.96,16.47,35.44,30.13l35.08,15.14c52.24,22.43,71.51,51.84,63.78,95.66-10.28,58.31-58.74,89.84-132.79,76.79-45.76-8.07-86.97-29.83-114.06-61.05"/>
      <path class="uuid-c0c5e32f-da10-4895-a94f-6b58d2d164ee" d="M789.81,1580.76l122.73,21.64c68.64,12.1,103.47,57.9,92.68,119.09-10.79,61.2-59.18,92.33-127.82,80.22l-47.84-8.43-15.9,90.15-74.88-13.2,51.04-289.46M885.63,1730.68c24.96,4.4,39.14-5.46,42.2-22.83,3.06-17.37-6.89-31.49-31.85-35.89l-43.69-7.7-10.35,58.72,43.69,7.7Z"/>
      <path class="uuid-c0c5e32f-da10-4895-a94f-6b58d2d164ee" d="M1011.4,1769.06c15.31-86.84,90.88-138.32,177-123.14,86.12,15.19,139.52,89.41,124.21,176.25-15.31,86.84-90.88,138.32-177,123.14-86.12-15.18-139.52-89.41-124.21-176.25M1148.3,1873.36c42.02,7.41,78.9-19.35,86.93-64.83,8.02-45.48-17.49-83.24-59.51-90.65-42.02-7.41-78.91,19.35-86.93,64.83-8.02,45.48,17.49,83.24,59.52,90.65Z"/>
      <path class="uuid-c0c5e32f-da10-4895-a94f-6b58d2d164ee" d="M1363.92,1681.99l131.04,23.11c63.65,11.22,98.33,57.85,87.98,116.57-7.8,44.24-37.42,73.56-78.93,80.31l58.49,113.5-88.61-15.62-50.92-105.34-18.72-3.3-16.48,93.46-74.88-13.2,51.04-289.46M1466.98,1829.78c21.21,3.74,35.66-5.22,38.58-21.76,2.92-16.54-7.6-29.91-28.81-33.65l-50.34-8.88-9.77,55.41,50.34,8.88Z"/>
      <polyline class="uuid-c0c5e32f-da10-4895-a94f-6b58d2d164ee" points="1677.13 1810.55 1595.17 1796.11 1607.72 1724.98 1846.52 1767.08 1833.97 1838.21 1752.02 1823.76 1713.52 2042.1 1638.63 2028.89 1677.13 1810.55"/>
    </g>
  </g>
</svg>